<svg class="rich-terminal" viewBox="0 0 1482 928.4" xmlns="http://www.w3.org/2000/svg">
    <!-- Generated with Rich https://www.textualize.io -->
    <style>

    @font-face {
        font-family: "Fira Code";
        src: local("FiraCode-Regular"),
                url("https://cdnjs.cloudflare.com/ajax/libs/firacode/6.2.0/woff2/FiraCode-Regular.woff2") format("woff2"),
                url("https://cdnjs.cloudflare.com/ajax/libs/firacode/6.2.0/woff/FiraCode-Regular.woff") format("woff");
        font-style: normal;
        font-weight: 400;
    }
    @font-face {
        font-family: "Fira Code";
        src: local("FiraCode-Bold"),
                url("https://cdnjs.cloudflare.com/ajax/libs/firacode/6.2.0/woff2/FiraCode-Bold.woff2") format("woff2"),
                url("https://cdnjs.cloudflare.com/ajax/libs/firacode/6.2.0/woff/FiraCode-Bold.woff") format("woff");
        font-style: bold;
        font-weight: 700;
    }

    .terminal-2998204374-matrix {
        font-family: Fira Code, monospace;
        font-size: 20px;
        line-height: 24.4px;
        font-variant-east-asian: full-width;
    }

    .terminal-2998204374-title {
        font-size: 18px;
        font-weight: bold;
        font-family: arial;
    }

    .terminal-2998204374-r1 { fill: #c5c8c6 }
.terminal-2998204374-r2 { fill: #c0caf5;font-weight: bold }
.terminal-2998204374-r3 { fill: #e2e3e5 }
.terminal-2998204374-r4 { fill: #e2e3e5;font-weight: bold }
.terminal-2998204374-r5 { fill: #f7768e;font-weight: bold }
.terminal-2998204374-r6 { fill: #73daca }
.terminal-2998204374-r7 { fill: #f7768e }
.terminal-2998204374-r8 { fill: #e0af68 }
.terminal-2998204374-r9 { fill: #2ac3de;font-weight: bold }
.terminal-2998204374-r10 { fill: #6f7592 }
.terminal-2998204374-r11 { fill: #0f1520;font-weight: bold }
.terminal-2998204374-r12 { fill: #4e536b }
.terminal-2998204374-r13 { fill: #7aa2f7 }
.terminal-2998204374-r14 { fill: #c0caf5 }
.terminal-2998204374-r15 { fill: #7dcfff;font-weight: bold }
.terminal-2998204374-r16 { fill: #565f89 }
.terminal-2998204374-r17 { fill: #a7a9b0 }
.terminal-2998204374-r18 { fill: #73daca;font-weight: bold }
.terminal-2998204374-r19 { fill: #a7a9b0;font-weight: bold }
    </style>

    <defs>
    <clipPath id="terminal-2998204374-clip-terminal">
      <rect x="0" y="0" width="1463.0" height="877.4" />
    </clipPath>
    <clipPath id="terminal-2998204374-line-0">
    <rect x="0" y="1.5" width="1464" height="24.65"/>
            </clipPath>
<clipPath id="terminal-2998204374-line-1">
    <rect x="0" y="25.9" width="1464" height="24.65"/>
            </clipPath>
<clipPath id="terminal-2998204374-line-2">
    <rect x="0" y="50.3" width="1464" height="24.65"/>
            </clipPath>
<clipPath id="terminal-2998204374-line-3">
    <rect x="0" y="74.7" width="1464" height="24.65"/>
            </clipPath>
<clipPath id="terminal-2998204374-line-4">
    <rect x="0" y="99.1" width="1464" height="24.65"/>
            </clipPath>
<clipPath id="terminal-2998204374-line-5">
    <rect x="0" y="123.5" width="1464" height="24.65"/>
            </clipPath>
<clipPath id="terminal-2998204374-line-6">
    <rect x="0" y="147.9" width="1464" height="24.65"/>
            </clipPath>
<clipPath id="terminal-2998204374-line-7">
    <rect x="0" y="172.3" width="1464" height="24.65"/>
            </clipPath>
<clipPath id="terminal-2998204374-line-8">
    <rect x="0" y="196.7" width="1464" height="24.65"/>
            </clipPath>
<clipPath id="terminal-2998204374-line-9">
    <rect x="0" y="221.1" width="1464" height="24.65"/>
            </clipPath>
<clipPath id="terminal-2998204374-line-10">
    <rect x="0" y="245.5" width="1464" height="24.65"/>
            </clipPath>
<clipPath id="terminal-2998204374-line-11">
    <rect x="0" y="269.9" width="1464" height="24.65"/>
            </clipPath>
<clipPath id="terminal-2998204374-line-12">
    <rect x="0" y="294.3" width="1464" height="24.65"/>
            </clipPath>
<clipPath id="terminal-2998204374-line-13">
    <rect x="0" y="318.7" width="1464" height="24.65"/>
            </clipPath>
<clipPath id="terminal-2998204374-line-14">
    <rect x="0" y="343.1" width="1464" height="24.65"/>
            </clipPath>
<clipPath id="terminal-2998204374-line-15">
    <rect x="0" y="367.5" width="1464" height="24.65"/>
            </clipPath>
<clipPath id="terminal-2998204374-line-16">
    <rect x="0" y="391.9" width="1464" height="24.65"/>
            </clipPath>
<clipPath id="terminal-2998204374-line-17">
    <rect x="0" y="416.3" width="1464" height="24.65"/>
            </clipPath>
<clipPath id="terminal-2998204374-line-18">
    <rect x="0" y="440.7" width="1464" height="24.65"/>
            </clipPath>
<clipPath id="terminal-2998204374-line-19">
    <rect x="0" y="465.1" width="1464" height="24.65"/>
            </clipPath>
<clipPath id="terminal-2998204374-line-20">
    <rect x="0" y="489.5" width="1464" height="24.65"/>
            </clipPath>
<clipPath id="terminal-2998204374-line-21">
    <rect x="0" y="513.9" width="1464" height="24.65"/>
            </clipPath>
<clipPath id="terminal-2998204374-line-22">
    <rect x="0" y="538.3" width="1464" height="24.65"/>
            </clipPath>
<clipPath id="terminal-2998204374-line-23">
    <rect x="0" y="562.7" width="1464" height="24.65"/>
            </clipPath>
<clipPath id="terminal-2998204374-line-24">
    <rect x="0" y="587.1" width="1464" height="24.65"/>
            </clipPath>
<clipPath id="terminal-2998204374-line-25">
    <rect x="0" y="611.5" width="1464" height="24.65"/>
            </clipPath>
<clipPath id="terminal-2998204374-line-26">
    <rect x="0" y="635.9" width="1464" height="24.65"/>
            </clipPath>
<clipPath id="terminal-2998204374-line-27">
    <rect x="0" y="660.3" width="1464" height="24.65"/>
            </clipPath>
<clipPath id="terminal-2998204374-line-28">
    <rect x="0" y="684.7" width="1464" height="24.65"/>
            </clipPath>
<clipPath id="terminal-2998204374-line-29">
    <rect x="0" y="709.1" width="1464" height="24.65"/>
            </clipPath>
<clipPath id="terminal-2998204374-line-30">
    <rect x="0" y="733.5" width="1464" height="24.65"/>
            </clipPath>
<clipPath id="terminal-2998204374-line-31">
    <rect x="0" y="757.9" width="1464" height="24.65"/>
            </clipPath>
<clipPath id="terminal-2998204374-line-32">
    <rect x="0" y="782.3" width="1464" height="24.65"/>
            </clipPath>
<clipPath id="terminal-2998204374-line-33">
    <rect x="0" y="806.7" width="1464" height="24.65"/>
            </clipPath>
<clipPath id="terminal-2998204374-line-34">
    <rect x="0" y="831.1" width="1464" height="24.65"/>
            </clipPath>
    </defs>

    <rect fill="#292929" stroke="rgba(255,255,255,0.35)" stroke-width="1" x="1" y="1" width="1480" height="926.4" rx="8"/><text class="terminal-2998204374-title" fill="#c5c8c6" text-anchor="middle" x="740" y="27">ResearchApp</text>
            <g transform="translate(26,22)">
            <circle cx="0" cy="0" r="7" fill="#ff5f57"/>
            <circle cx="22" cy="0" r="7" fill="#febc2e"/>
            <circle cx="44" cy="0" r="7" fill="#28c840"/>
            </g>
        
    <g transform="translate(9, 41)" clip-path="url(#terminal-2998204374-clip-terminal)">
    <rect fill="#24283b" x="0" y="1.5" width="12.2" height="24.65" shape-rendering="crispEdges"/><rect fill="#73daca" x="12.2" y="1.5" width="146.4" height="24.65" shape-rendering="crispEdges"/><rect fill="#24283b" x="158.6" y="1.5" width="36.6" height="24.65" shape-rendering="crispEdges"/><rect fill="#24283b" x="195.2" y="1.5" width="183" height="24.65" shape-rendering="crispEdges"/><rect fill="#24283b" x="378.2" y="1.5" width="36.6" height="24.65" shape-rendering="crispEdges"/><rect fill="#24283b" x="414.8" y="1.5" width="73.2" height="24.65" shape-rendering="crispEdges"/><rect fill="#24283b" x="488" y="1.5" width="36.6" height="24.65" shape-rendering="crispEdges"/><rect fill="#24283b" x="524.6" y="1.5" width="36.6" height="24.65" shape-rendering="crispEdges"/><rect fill="#24283b" x="561.2" y="1.5" width="12.2" height="24.65" shape-rendering="crispEdges"/><rect fill="#24283b" x="573.4" y="1.5" width="24.4" height="24.65" shape-rendering="crispEdges"/><rect fill="#24283b" x="597.8" y="1.5" width="36.6" height="24.65" shape-rendering="crispEdges"/><rect fill="#24283b" x="634.4" y="1.5" width="24.4" height="24.65" shape-rendering="crispEdges"/><rect fill="#24283b" x="658.8" y="1.5" width="36.6" height="24.65" shape-rendering="crispEdges"/><rect fill="#24283b" x="695.4" y="1.5" width="134.2" height="24.65" shape-rendering="crispEdges"/><rect fill="#24283b" x="829.6" y="1.5" width="622.2" height="24.65" shape-rendering="crispEdges"/><rect fill="#24283b" x="1451.8" y="1.5" width="12.2" height="24.65" shape-rendering="crispEdges"/><rect fill="#1e2030" x="0" y="25.9" width="12.2" height="24.65" shape-rendering="crispEdges"/><rect fill="#1e2030" x="12.2" y="25.9" width="97.6" height="24.65" shape-rendering="crispEdges"/><rect fill="#1e2030" x="109.8" y="25.9" width="12.2" height="24.65" shape-rendering="crispEdges"/><rect fill="#1e2030" x="122" y="25.9" width="12.2" height="24.65" shape-rendering="crispEdges"/><rect fill="#1e2030" x="134.2" y="25.9" width="61" height="24.65" shape-rendering="crispEdges"/><rect fill="#1e2030" x="195.2" y="25.9" width="12.2" height="24.65" shape-rendering="crispEdges"/><rect fill="#1e2030" x="207.4" y="25.9" width="12.2" height="24.65" shape-rendering="crispEdges"/><rect fill="#1e2030" x="219.6" y="25.9" width="73.2" height="24.65" shape-rendering="crispEdges"/><rect fill="#1e2030" x="292.8" y="25.9" width="12.2" height="24.65" shape-rendering="crispEdges"/><rect fill="#7aa2f7" x="305" y="25.9" width="12.2" height="24.65" shape-rendering="crispEdges"/><rect fill="#7aa2f7" x="317.2" y="25.9" width="207.4" height="24.65" shape-rendering="crispEdges"/><rect fill="#7aa2f7" x="524.6" y="25.9" width="12.2" height="24.65" shape-rendering="crispEdges"/><rect fill="#1e2030" x="536.8" y="25.9" width="12.2" height="24.65" shape-rendering="crispEdges"/><rect fill="#1e2030" x="549" y="25.9" width="48.8" height="24.65" shape-rendering="crispEdges"/><rect fill="#1e2030" x="597.8" y="25.9" width="12.2" height="24.65" shape-rendering="crispEdges"/><rect fill="#1e2030" x="610" y="25.9" width="854" height="24.65" shape-rendering="crispEdges"/><rect fill="#1e2030" x="0" y="50.3" width="305" height="24.65" shape-rendering="crispEdges"/><rect fill="#1e2030" x="305" y="50.3" width="12.2" height="24.65" shape-rendering="crispEdges"/><rect fill="#1e2030" x="317.2" y="50.3" width="207.4" height="24.65" shape-rendering="crispEdges"/><rect fill="#1e2030" x="524.6" y="50.3" width="12.2" height="24.65" shape-rendering="crispEdges"/><rect fill="#1e2030" x="536.8" y="50.3" width="927.2" height="24.65" shape-rendering="crispEdges"/><rect fill="#1e2030" x="0" y="74.7" width="12.2" height="24.65" shape-rendering="crispEdges"/><rect fill="#1e2030" x="12.2" y="74.7" width="1415.2" height="24.65" shape-rendering="crispEdges"/><rect fill="#070817" x="1427.4" y="74.7" width="24.4" height="24.65" shape-rendering="crispEdges"/><rect fill="#1e2030" x="1451.8" y="74.7" width="12.2" height="24.65" shape-rendering="crispEdges"/><rect fill="#1e2030" x="0" y="99.1" width="12.2" height="24.65" shape-rendering="crispEdges"/><rect fill="#1e2030" x="12.2" y="99.1" width="1415.2" height="24.65" shape-rendering="crispEdges"/><rect fill="#070817" x="1427.4" y="99.1" width="24.4" height="24.65" shape-rendering="crispEdges"/><rect fill="#1e2030" x="1451.8" y="99.1" width="12.2" height="24.65" shape-rendering="crispEdges"/><rect fill="#1e2030" x="0" y="123.5" width="12.2" height="24.65" shape-rendering="crispEdges"/><rect fill="#1e2030" x="12.2" y="123.5" width="1415.2" height="24.65" shape-rendering="crispEdges"/><rect fill="#070817" x="1427.4" y="123.5" width="24.4" height="24.65" shape-rendering="crispEdges"/><rect fill="#1e2030" x="1451.8" y="123.5" width="12.2" height="24.65" shape-rendering="crispEdges"/><rect fill="#1e2030" x="0" y="147.9" width="12.2" height="24.65" shape-rendering="crispEdges"/><rect fill="#1e2030" x="12.2" y="147.9" width="1415.2" height="24.65" shape-rendering="crispEdges"/><rect fill="#070817" x="1427.4" y="147.9" width="24.4" height="24.65" shape-rendering="crispEdges"/><rect fill="#1e2030" x="1451.8" y="147.9" width="12.2" height="24.65" shape-rendering="crispEdges"/><rect fill="#1e2030" x="0" y="172.3" width="12.2" height="24.65" shape-rendering="crispEdges"/><rect fill="#1e2030" x="12.2" y="172.3" width="1415.2" height="24.65" shape-rendering="crispEdges"/><rect fill="#070817" x="1427.4" y="172.3" width="24.4" height="24.65" shape-rendering="crispEdges"/><rect fill="#1e2030" x="1451.8" y="172.3" width="12.2" height="24.65" shape-rendering="crispEdges"/><rect fill="#1e2030" x="0" y="196.7" width="12.2" height="24.65" shape-rendering="crispEdges"/><rect fill="#1e2030" x="12.2" y="196.7" width="1415.2" height="24.65" shape-rendering="crispEdges"/><rect fill="#070817" x="1427.4" y="196.7" width="24.4" height="24.65" shape-rendering="crispEdges"/><rect fill="#1e2030" x="1451.8" y="196.7" width="12.2" height="24.65" shape-rendering="crispEdges"/><rect fill="#1e2030" x="0" y="221.1" width="12.2" height="24.65" shape-rendering="crispEdges"/><rect fill="#1e2030" x="12.2" y="221.1" width="1415.2" height="24.65" shape-rendering="crispEdges"/><rect fill="#070817" x="1427.4" y="221.1" width="24.4" height="24.65" shape-rendering="crispEdges"/><rect fill="#1e2030" x="1451.8" y="221.1" width="12.2" height="24.65" shape-rendering="crispEdges"/><rect fill="#1e2030" x="0" y="245.5" width="12.2" height="24.65" shape-rendering="crispEdges"/><rect fill="#1e2030" x="12.2" y="245.5" width="1415.2" height="24.65" shape-rendering="crispEdges"/><rect fill="#070817" x="1427.4" y="245.5" width="24.4" height="24.65" shape-rendering="crispEdges"/><rect fill="#1e2030" x="1451.8" y="245.5" width="12.2" height="24.65" shape-rendering="crispEdges"/><rect fill="#1e2030" x="0" y="269.9" width="12.2" height="24.65" shape-rendering="crispEdges"/><rect fill="#1e2030" x="12.2" y="269.9" width="1415.2" height="24.65" shape-rendering="crispEdges"/><rect fill="#070817" x="1427.4" y="269.9" width="24.4" height="24.65" shape-rendering="crispEdges"/><rect fill="#1e2030" x="1451.8" y="269.9" width="12.2" height="24.65" shape-rendering="crispEdges"/><rect fill="#1e2030" x="0" y="294.3" width="12.2" height="24.65" shape-rendering="crispEdges"/><rect fill="#1e2030" x="12.2" y="294.3" width="1415.2" height="24.65" shape-rendering="crispEdges"/><rect fill="#070817" x="1427.4" y="294.3" width="24.4" height="24.65" shape-rendering="crispEdges"/><rect fill="#1e2030" x="1451.8" y="294.3" width="12.2" height="24.65" shape-rendering="crispEdges"/><rect fill="#1e2030" x="0" y="318.7" width="12.2" height="24.65" shape-rendering="crispEdges"/><rect fill="#1e2030" x="12.2" y="318.7" width="1415.2" height="24.65" shape-rendering="crispEdges"/><rect fill="#070817" x="1427.4" y="318.7" width="24.4" height="24.65" shape-rendering="crispEdges"/><rect fill="#1e2030" x="1451.8" y="318.7" width="12.2" height="24.65" shape-rendering="crispEdges"/><rect fill="#1e2030" x="0" y="343.1" width="12.2" height="24.65" shape-rendering="crispEdges"/><rect fill="#1e2030" x="12.2" y="343.1" width="1415.2" height="24.65" shape-rendering="crispEdges"/><rect fill="#070817" x="1427.4" y="343.1" width="24.4" height="24.65" shape-rendering="crispEdges"/><rect fill="#1e2030" x="1451.8" y="343.1" width="12.2" height="24.65" shape-rendering="crispEdges"/><rect fill="#1e2030" x="0" y="367.5" width="12.2" height="24.65" shape-rendering="crispEdges"/><rect fill="#1e2030" x="12.2" y="367.5" width="1415.2" height="24.65" shape-rendering="crispEdges"/><rect fill="#070817" x="1427.4" y="367.5" width="24.4" height="24.65" shape-rendering="crispEdges"/><rect fill="#1e2030" x="1451.8" y="367.5" width="12.2" height="24.65" shape-rendering="crispEdges"/><rect fill="#1e2030" x="0" y="391.9" width="12.2" height="24.65" shape-rendering="crispEdges"/><rect fill="#1e2030" x="12.2" y="391.9" width="1415.2" height="24.65" shape-rendering="crispEdges"/><rect fill="#070817" x="1427.4" y="391.9" width="24.4" height="24.65" shape-rendering="crispEdges"/><rect fill="#1e2030" x="1451.8" y="391.9" width="12.2" height="24.65" shape-rendering="crispEdges"/><rect fill="#1e2030" x="0" y="416.3" width="12.2" height="24.65" shape-rendering="crispEdges"/><rect fill="#1e2030" x="12.2" y="416.3" width="1415.2" height="24.65" shape-rendering="crispEdges"/><rect fill="#070817" x="1427.4" y="416.3" width="24.4" height="24.65" shape-rendering="crispEdges"/><rect fill="#1e2030" x="1451.8" y="416.3" width="12.2" height="24.65" shape-rendering="crispEdges"/><rect fill="#1e2030" x="0" y="440.7" width="12.2" height="24.65" shape-rendering="crispEdges"/><rect fill="#1e2030" x="12.2" y="440.7" width="1415.2" height="24.65" shape-rendering="crispEdges"/><rect fill="#070817" x="1427.4" y="440.7" width="24.4" height="24.65" shape-rendering="crispEdges"/><rect fill="#1e2030" x="1451.8" y="440.7" width="12.2" height="24.65" shape-rendering="crispEdges"/><rect fill="#1e2030" x="0" y="465.1" width="12.2" height="24.65" shape-rendering="crispEdges"/><rect fill="#1e2030" x="12.2" y="465.1" width="1415.2" height="24.65" shape-rendering="crispEdges"/><rect fill="#070817" x="1427.4" y="465.1" width="24.4" height="24.65" shape-rendering="crispEdges"/><rect fill="#1e2030" x="1451.8" y="465.1" width="12.2" height="24.65" shape-rendering="crispEdges"/><rect fill="#1e2030" x="0" y="489.5" width="12.2" height="24.65" shape-rendering="crispEdges"/><rect fill="#1e2030" x="12.2" y="489.5" width="1415.2" height="24.65" shape-rendering="crispEdges"/><rect fill="#070817" x="1427.4" y="489.5" width="24.4" height="24.65" shape-rendering="crispEdges"/><rect fill="#1e2030" x="1451.8" y="489.5" width="12.2" height="24.65" shape-rendering="crispEdges"/><rect fill="#1e2030" x="0" y="513.9" width="12.2" height="24.65" shape-rendering="crispEdges"/><rect fill="#1e2030" x="12.2" y="513.9" width="1415.2" height="24.65" shape-rendering="crispEdges"/><rect fill="#070817" x="1427.4" y="513.9" width="24.4" height="24.65" shape-rendering="crispEdges"/><rect fill="#1e2030" x="1451.8" y="513.9" width="12.2" height="24.65" shape-rendering="crispEdges"/><rect fill="#1e2030" x="0" y="538.3" width="12.2" height="24.65" shape-rendering="crispEdges"/><rect fill="#1e2030" x="12.2" y="538.3" width="1415.2" height="24.65" shape-rendering="crispEdges"/><rect fill="#070817" x="1427.4" y="538.3" width="24.4" height="24.65" shape-rendering="crispEdges"/><rect fill="#1e2030" x="1451.8" y="538.3" width="12.2" height="24.65" shape-rendering="crispEdges"/><rect fill="#1e2030" x="0" y="562.7" width="12.2" height="24.65" shape-rendering="crispEdges"/><rect fill="#1e2030" x="12.2" y="562.7" width="1415.2" height="24.65" shape-rendering="crispEdges"/><rect fill="#070817" x="1427.4" y="562.7" width="24.4" height="24.65" shape-rendering="crispEdges"/><rect fill="#1e2030" x="1451.8" y="562.7" width="12.2" height="24.65" shape-rendering="crispEdges"/><rect fill="#1e2030" x="0" y="587.1" width="12.2" height="24.65" shape-rendering="crispEdges"/><rect fill="#1e2030" x="12.2" y="587.1" width="1415.2" height="24.65" shape-rendering="crispEdges"/><rect fill="#070817" x="1427.4" y="587.1" width="24.4" height="24.65" shape-rendering="crispEdges"/><rect fill="#1e2030" x="1451.8" y="587.1" width="12.2" height="24.65" shape-rendering="crispEdges"/><rect fill="#1e2030" x="0" y="611.5" width="12.2" height="24.65" shape-rendering="crispEdges"/><rect fill="#1e2030" x="12.2" y="611.5" width="1415.2" height="24.65" shape-rendering="crispEdges"/><rect fill="#070817" x="1427.4" y="611.5" width="24.4" height="24.65" shape-rendering="crispEdges"/><rect fill="#1e2030" x="1451.8" y="611.5" width="12.2" height="24.65" shape-rendering="crispEdges"/><rect fill="#1e2030" x="0" y="635.9" width="12.2" height="24.65" shape-rendering="crispEdges"/><rect fill="#1e2030" x="12.2" y="635.9" width="1415.2" height="24.65" shape-rendering="crispEdges"/><rect fill="#070817" x="1427.4" y="635.9" width="24.4" height="24.65" shape-rendering="crispEdges"/><rect fill="#1e2030" x="1451.8" y="635.9" width="12.2" height="24.65" shape-rendering="crispEdges"/><rect fill="#1e2030" x="0" y="660.3" width="12.2" height="24.65" shape-rendering="crispEdges"/><rect fill="#1e2030" x="12.2" y="660.3" width="1415.2" height="24.65" shape-rendering="crispEdges"/><rect fill="#070817" x="1427.4" y="660.3" width="24.4" height="24.65" shape-rendering="crispEdges"/><rect fill="#1e2030" x="1451.8" y="660.3" width="12.2" height="24.65" shape-rendering="crispEdges"/><rect fill="#1e2030" x="0" y="684.7" width="12.2" height="24.65" shape-rendering="crispEdges"/><rect fill="#1e2030" x="12.2" y="684.7" width="1415.2" height="24.65" shape-rendering="crispEdges"/><rect fill="#070817" x="1427.4" y="684.7" width="24.4" height="24.65" shape-rendering="crispEdges"/><rect fill="#1e2030" x="1451.8" y="684.7" width="12.2" height="24.65" shape-rendering="crispEdges"/><rect fill="#1e2030" x="0" y="709.1" width="12.2" height="24.65" shape-rendering="crispEdges"/><rect fill="#1e2030" x="12.2" y="709.1" width="1415.2" height="24.65" shape-rendering="crispEdges"/><rect fill="#070817" x="1427.4" y="709.1" width="24.4" height="24.65" shape-rendering="crispEdges"/><rect fill="#1e2030" x="1451.8" y="709.1" width="12.2" height="24.65" shape-rendering="crispEdges"/><rect fill="#1e2030" x="0" y="733.5" width="12.2" height="24.65" shape-rendering="crispEdges"/><rect fill="#1e2030" x="12.2" y="733.5" width="1415.2" height="24.65" shape-rendering="crispEdges"/><rect fill="#070817" x="1427.4" y="733.5" width="24.4" height="24.65" shape-rendering="crispEdges"/><rect fill="#1e2030" x="1451.8" y="733.5" width="12.2" height="24.65" shape-rendering="crispEdges"/><rect fill="#1e2030" x="0" y="757.9" width="12.2" height="24.65" shape-rendering="crispEdges"/><rect fill="#1e2030" x="12.2" y="757.9" width="1415.2" height="24.65" shape-rendering="crispEdges"/><rect fill="#070817" x="1427.4" y="757.9" width="24.4" height="24.65" shape-rendering="crispEdges"/><rect fill="#1e2030" x="1451.8" y="757.9" width="12.2" height="24.65" shape-rendering="crispEdges"/><rect fill="#1e2030" x="0" y="782.3" width="12.2" height="24.65" shape-rendering="crispEdges"/><rect fill="#1e2030" x="12.2" y="782.3" width="1415.2" height="24.65" shape-rendering="crispEdges"/><rect fill="#070817" x="1427.4" y="782.3" width="24.4" height="24.65" shape-rendering="crispEdges"/><rect fill="#1e2030" x="1451.8" y="782.3" width="12.2" height="24.65" shape-rendering="crispEdges"/><rect fill="#1e2030" x="0" y="806.7" width="12.2" height="24.65" shape-rendering="crispEdges"/><rect fill="#1e2030" x="12.2" y="806.7" width="1415.2" height="24.65" shape-rendering="crispEdges"/><rect fill="#070817" x="1427.4" y="806.7" width="24.4" height="24.65" shape-rendering="crispEdges"/><rect fill="#1e2030" x="1451.8" y="806.7" width="12.2" height="24.65" shape-rendering="crispEdges"/><rect fill="#1e2030" x="0" y="831.1" width="12.2" height="24.65" shape-rendering="crispEdges"/><rect fill="#1e2030" x="12.2" y="831.1" width="1415.2" height="24.65" shape-rendering="crispEdges"/><rect fill="#070817" x="1427.4" y="831.1" width="24.4" height="24.65" shape-rendering="crispEdges"/><rect fill="#1e2030" x="1451.8" y="831.1" width="12.2" height="24.65" shape-rendering="crispEdges"/><rect fill="#24283b" x="0" y="855.5" width="12.2" height="24.65" shape-rendering="crispEdges"/><rect fill="#24283b" x="12.2" y="855.5" width="36.6" height="24.65" shape-rendering="crispEdges"/><rect fill="#24283b" x="48.8" y="855.5" width="12.2" height="24.65" shape-rendering="crispEdges"/><rect fill="#24283b" x="61" y="855.5" width="36.6" height="24.65" shape-rendering="crispEdges"/><rect fill="#24283b" x="97.6" y="855.5" width="48.8" height="24.65" shape-rendering="crispEdges"/><rect fill="#24283b" x="146.4" y="855.5" width="12.2" height="24.65" shape-rendering="crispEdges"/><rect fill="#24283b" x="158.6" y="855.5" width="36.6" height="24.65" shape-rendering="crispEdges"/><rect fill="#24283b" x="195.2" y="855.5" width="61" height="24.65" shape-rendering="crispEdges"/><rect fill="#24283b" x="256.2" y="855.5" width="12.2" height="24.65" shape-rendering="crispEdges"/><rect fill="#24283b" x="268.4" y="855.5" width="36.6" height="24.65" shape-rendering="crispEdges"/><rect fill="#24283b" x="305" y="855.5" width="36.6" height="24.65" shape-rendering="crispEdges"/><rect fill="#24283b" x="341.6" y="855.5" width="12.2" height="24.65" shape-rendering="crispEdges"/><rect fill="#24283b" x="353.8" y="855.5" width="36.6" height="24.65" shape-rendering="crispEdges"/><rect fill="#24283b" x="390.4" y="855.5" width="85.4" height="24.65" shape-rendering="crispEdges"/><rect fill="#24283b" x="475.8" y="855.5" width="12.2" height="24.65" shape-rendering="crispEdges"/><rect fill="#24283b" x="488" y="855.5" width="36.6" height="24.65" shape-rendering="crispEdges"/><rect fill="#24283b" x="524.6" y="855.5" width="24.4" height="24.65" shape-rendering="crispEdges"/><rect fill="#24283b" x="549" y="855.5" width="12.2" height="24.65" shape-rendering="crispEdges"/><rect fill="#24283b" x="561.2" y="855.5" width="36.6" height="24.65" shape-rendering="crispEdges"/><rect fill="#24283b" x="597.8" y="855.5" width="36.6" height="24.65" shape-rendering="crispEdges"/><rect fill="#24283b" x="634.4" y="855.5" width="12.2" height="24.65" shape-rendering="crispEdges"/><rect fill="#24283b" x="646.6" y="855.5" width="73.2" height="24.65" shape-rendering="crispEdges"/><rect fill="#24283b" x="719.8" y="855.5" width="732" height="24.65" shape-rendering="crispEdges"/><rect fill="#24283b" x="1451.8" y="855.5" width="12.2" height="24.65" shape-rendering="crispEdges"/>
    <g class="terminal-2998204374-matrix">
    <text class="terminal-2998204374-r2" x="12.2" y="20" textLength="146.4" clip-path="url(#terminal-2998204374-line-0)">&#160;EXPERIMENT&#160;</text><text class="terminal-2998204374-r3" x="158.6" y="20" textLength="36.6" clip-path="url(#terminal-2998204374-line-0)">&#160;|&#160;</text><text class="terminal-2998204374-r4" x="195.2" y="20" textLength="183" clip-path="url(#terminal-2998204374-line-0)">Open&#160;Researcher</text><text class="terminal-2998204374-r3" x="378.2" y="20" textLength="36.6" clip-path="url(#terminal-2998204374-line-0)">&#160;|&#160;</text><text class="terminal-2998204374-r5" x="414.8" y="20" textLength="73.2" clip-path="url(#terminal-2998204374-line-0)">PAUSED</text><text class="terminal-2998204374-r3" x="488" y="20" textLength="36.6" clip-path="url(#terminal-2998204374-line-0)">&#160;|&#160;</text><text class="terminal-2998204374-r6" x="524.6" y="20" textLength="36.6" clip-path="url(#terminal-2998204374-line-0)">23K</text><text class="terminal-2998204374-r7" x="573.4" y="20" textLength="24.4" clip-path="url(#terminal-2998204374-line-0)">6D</text><text class="terminal-2998204374-r3" x="597.8" y="20" textLength="36.6" clip-path="url(#terminal-2998204374-line-0)">&#160;|&#160;</text><text class="terminal-2998204374-r8" x="634.4" y="20" textLength="24.4" clip-path="url(#terminal-2998204374-line-0)">3C</text><text class="terminal-2998204374-r3" x="658.8" y="20" textLength="36.6" clip-path="url(#terminal-2998204374-line-0)">&#160;|&#160;</text><text class="terminal-2998204374-r9" x="695.4" y="20" textLength="134.2" clip-path="url(#terminal-2998204374-line-0)">best=2.9269</text><text class="terminal-2998204374-r1" x="1464" y="20" textLength="12.2" clip-path="url(#terminal-2998204374-line-0)">
</text><text class="terminal-2998204374-r10" x="12.2" y="44.4" textLength="97.6" clip-path="url(#terminal-2998204374-line-1)">Overview</text><text class="terminal-2998204374-r10" x="134.2" y="44.4" textLength="61" clip-path="url(#terminal-2998204374-line-1)">Ideas</text><text class="terminal-2998204374-r10" x="219.6" y="44.4" textLength="73.2" clip-path="url(#terminal-2998204374-line-1)">Charts</text><text class="terminal-2998204374-r11" x="317.2" y="44.4" textLength="207.4" clip-path="url(#terminal-2998204374-line-1)">Logs&#160;(Experiment)</text><text class="terminal-2998204374-r10" x="549" y="44.4" textLength="48.8" clip-path="url(#terminal-2998204374-line-1)">Docs</text><text class="terminal-2998204374-r1" x="1464" y="44.4" textLength="12.2" clip-path="url(#terminal-2998204374-line-1)">
</text><text class="terminal-2998204374-r12" x="0" y="68.8" textLength="305" clip-path="url(#terminal-2998204374-line-2)">━━━━━━━━━━━━━━━━━━━━━━━━━</text><text class="terminal-2998204374-r12" x="305" y="68.8" textLength="12.2" clip-path="url(#terminal-2998204374-line-2)">╸</text><text class="terminal-2998204374-r13" x="317.2" y="68.8" textLength="207.4" clip-path="url(#terminal-2998204374-line-2)">━━━━━━━━━━━━━━━━━</text><text class="terminal-2998204374-r12" x="524.6" y="68.8" textLength="12.2" clip-path="url(#terminal-2998204374-line-2)">╺</text><text class="terminal-2998204374-r12" x="536.8" y="68.8" textLength="927.2" clip-path="url(#terminal-2998204374-line-2)">━━━━━━━━━━━━━━━━━━━━━━━━━━━━━━━━━━━━━━━━━━━━━━━━━━━━━━━━━━━━━━━━━━━━━━━━━━━━</text><text class="terminal-2998204374-r1" x="1464" y="68.8" textLength="12.2" clip-path="url(#terminal-2998204374-line-2)">
</text><text class="terminal-2998204374-r1" x="1464" y="93.2" textLength="12.2" clip-path="url(#terminal-2998204374-line-3)">
</text><text class="terminal-2998204374-r1" x="1464" y="117.6" textLength="12.2" clip-path="url(#terminal-2998204374-line-4)">
</text><text class="terminal-2998204374-r1" x="1464" y="142" textLength="12.2" clip-path="url(#terminal-2998204374-line-5)">
</text><text class="terminal-2998204374-r1" x="1464" y="166.4" textLength="12.2" clip-path="url(#terminal-2998204374-line-6)">
</text><text class="terminal-2998204374-r1" x="1464" y="190.8" textLength="12.2" clip-path="url(#terminal-2998204374-line-7)">
</text><text class="terminal-2998204374-r1" x="1464" y="215.2" textLength="12.2" clip-path="url(#terminal-2998204374-line-8)">
</text><text class="terminal-2998204374-r1" x="1464" y="239.6" textLength="12.2" clip-path="url(#terminal-2998204374-line-9)">
</text><text class="terminal-2998204374-r1" x="1464" y="264" textLength="12.2" clip-path="url(#terminal-2998204374-line-10)">
</text><text class="terminal-2998204374-r1" x="1464" y="288.4" textLength="12.2" clip-path="url(#terminal-2998204374-line-11)">
</text><text class="terminal-2998204374-r1" x="1464" y="312.8" textLength="12.2" clip-path="url(#terminal-2998204374-line-12)">
</text><text class="terminal-2998204374-r1" x="1464" y="337.2" textLength="12.2" clip-path="url(#terminal-2998204374-line-13)">
</text><text class="terminal-2998204374-r1" x="1464" y="361.6" textLength="12.2" clip-path="url(#terminal-2998204374-line-14)">
</text><text class="terminal-2998204374-r1" x="1464" y="386" textLength="12.2" clip-path="url(#terminal-2998204374-line-15)">
</text><text class="terminal-2998204374-r1" x="1464" y="410.4" textLength="12.2" clip-path="url(#terminal-2998204374-line-16)">
</text><text class="terminal-2998204374-r1" x="1464" y="434.8" textLength="12.2" clip-path="url(#terminal-2998204374-line-17)">
</text><text class="terminal-2998204374-r1" x="1464" y="459.2" textLength="12.2" clip-path="url(#terminal-2998204374-line-18)">
</text><text class="terminal-2998204374-r1" x="1464" y="483.6" textLength="12.2" clip-path="url(#terminal-2998204374-line-19)">
</text><text class="terminal-2998204374-r1" x="1464" y="508" textLength="12.2" clip-path="url(#terminal-2998204374-line-20)">
</text><text class="terminal-2998204374-r1" x="1464" y="532.4" textLength="12.2" clip-path="url(#terminal-2998204374-line-21)">
</text><text class="terminal-2998204374-r1" x="1464" y="556.8" textLength="12.2" clip-path="url(#terminal-2998204374-line-22)">
</text><text class="terminal-2998204374-r1" x="1464" y="581.2" textLength="12.2" clip-path="url(#terminal-2998204374-line-23)">
</text><text class="terminal-2998204374-r1" x="1464" y="605.6" textLength="12.2" clip-path="url(#terminal-2998204374-line-24)">
</text><text class="terminal-2998204374-r1" x="1464" y="630" textLength="12.2" clip-path="url(#terminal-2998204374-line-25)">
</text><text class="terminal-2998204374-r1" x="1464" y="654.4" textLength="12.2" clip-path="url(#terminal-2998204374-line-26)">
</text><text class="terminal-2998204374-r1" x="1464" y="678.8" textLength="12.2" clip-path="url(#terminal-2998204374-line-27)">
</text><text class="terminal-2998204374-r1" x="1464" y="703.2" textLength="12.2" clip-path="url(#terminal-2998204374-line-28)">
</text><text class="terminal-2998204374-r1" x="1464" y="727.6" textLength="12.2" clip-path="url(#terminal-2998204374-line-29)">
</text><text class="terminal-2998204374-r1" x="1464" y="752" textLength="12.2" clip-path="url(#terminal-2998204374-line-30)">
</text><text class="terminal-2998204374-r1" x="1464" y="776.4" textLength="12.2" clip-path="url(#terminal-2998204374-line-31)">
</text><text class="terminal-2998204374-r1" x="1464" y="800.8" textLength="12.2" clip-path="url(#terminal-2998204374-line-32)">
</text><text class="terminal-2998204374-r1" x="1464" y="825.2" textLength="12.2" clip-path="url(#terminal-2998204374-line-33)">
</text><text class="terminal-2998204374-r1" x="1464" y="849.6" textLength="12.2" clip-path="url(#terminal-2998204374-line-34)">
</text><text class="terminal-2998204374-r15" x="12.2" y="874" textLength="36.6" clip-path="url(#terminal-2998204374-line-35)">[1]</text><text class="terminal-2998204374-r16" x="48.8" y="874" textLength="12.2" clip-path="url(#terminal-2998204374-line-35)">-</text><text class="terminal-2998204374-r15" x="61" y="874" textLength="36.6" clip-path="url(#terminal-2998204374-line-35)">[5]</text><text class="terminal-2998204374-r16" x="97.6" y="874" textLength="48.8" clip-path="url(#terminal-2998204374-line-35)">tabs</text><text class="terminal-2998204374-r18" x="158.6" y="874" textLength="36.6" clip-path="url(#terminal-2998204374-line-35)">[r]</text><text class="terminal-2998204374-r19" x="195.2" y="874" textLength="61" clip-path="url(#terminal-2998204374-line-35)">esume</text><text class="terminal-2998204374-r15" x="268.4" y="874" textLength="36.6" clip-path="url(#terminal-2998204374-line-35)">[s]</text><text class="terminal-2998204374-r16" x="305" y="874" textLength="36.6" clip-path="url(#terminal-2998204374-line-35)">kip</text><text class="terminal-2998204374-r15" x="353.8" y="874" textLength="36.6" clip-path="url(#terminal-2998204374-line-35)">[a]</text><text class="terminal-2998204374-r16" x="390.4" y="874" textLength="85.4" clip-path="url(#terminal-2998204374-line-35)">dd&#160;idea</text><text class="terminal-2998204374-r15" x="488" y="874" textLength="36.6" clip-path="url(#terminal-2998204374-line-35)">[g]</text><text class="terminal-2998204374-r16" x="524.6" y="874" textLength="24.4" clip-path="url(#terminal-2998204374-line-35)">pu</text><text class="terminal-2998204374-r15" x="561.2" y="874" textLength="36.6" clip-path="url(#terminal-2998204374-line-35)">[q]</text><text class="terminal-2998204374-r16" x="597.8" y="874" textLength="36.6" clip-path="url(#terminal-2998204374-line-35)">uit</text><text class="terminal-2998204374-r5" x="646.6" y="874" textLength="73.2" clip-path="url(#terminal-2998204374-line-35)">PAUSED</text>
    </g>
    </g>
</svg>
